<svg width="442" height="120" viewBox="0 0 442 120" fill="none" xmlns="http://www.w3.org/2000/svg">
<path d="M0 71.3912C0 51.9873 7.24859 42.2853 21.7458 42.2853C36.3021 42.2853 43.5803 51.9873 43.5803 71.3912C43.5803 74.9407 43.4324 78.0465 43.1365 80.7086C42.8998 83.3707 42.3081 86.092 41.3613 88.8724C40.4738 91.6529 39.2607 93.9305 37.7222 95.7052C36.1838 97.48 34.0536 98.9293 31.3317 100.053C28.6689 101.177 25.4736 101.739 21.7458 101.739C18.0771 101.739 14.8818 101.177 12.1599 100.053C9.49713 98.9293 7.39652 97.48 5.85804 95.7052C4.31957 93.9305 3.07695 91.6529 2.1302 88.8724C1.24262 86.092 0.650894 83.3707 0.355033 80.7086C0.118344 78.0465 0 74.9407 0 71.3912ZM14.2901 93.2206C16.3019 94.522 18.7872 95.1728 21.7458 95.1728C24.7635 95.1728 27.2784 94.522 29.2902 93.2206C31.3612 91.9191 32.8997 90.0556 33.9056 87.6301C35.6808 83.4299 36.5684 78.0465 36.5684 71.4799C36.5684 55.5072 31.6275 47.5208 21.7458 47.5208C11.9232 47.5208 7.0119 55.5072 7.0119 71.4799C7.0119 82.8974 9.43796 90.1443 14.2901 93.2206Z" fill="#503D0E"/>
<path d="M54.7271 95.2615C55.2596 89.3457 55.5259 83.9327 55.5259 79.0226C55.5259 74.0533 55.2892 69.1432 54.8158 64.2922L51.5318 64.026C51.3543 63.0794 51.2655 62.1033 51.2655 61.0976C51.2655 60.0919 51.2951 59.4116 51.3543 59.0567C54.372 58.9975 58.0407 58.7313 62.3603 58.258L62.8041 58.7017C62.7449 59.0567 62.5674 60.8018 62.2715 63.9372C63.6325 62.2216 65.2005 60.8018 66.9757 59.6778C68.81 58.5538 70.5852 57.9918 72.3012 57.9918C74.0764 57.9918 75.6148 58.613 76.9166 59.8553C78.2184 61.0976 78.8693 62.7245 78.8693 64.7359C78.8693 68.0487 77.4788 69.7052 74.6977 69.7052C73.1 69.7052 71.8278 69.2023 70.8811 68.1966C69.9343 67.1318 69.4609 65.7416 69.4609 64.026C69.3426 63.9668 69.1355 63.9372 68.8396 63.9372C66.6503 63.9372 64.4017 65.5937 62.094 68.9065C62.0348 70.563 62.0052 74.2899 62.0052 80.0874C62.0052 85.8258 62.2715 90.8838 62.8041 95.2615L66.0881 95.5277C66.2065 96.8292 66.2656 97.7462 66.2656 98.2786C66.2656 98.7519 66.1769 99.4913 65.9994 100.497C64.3426 100.438 61.9165 100.408 58.7212 100.408C55.5259 100.408 53.1886 100.438 51.7093 100.497C51.5318 99.6097 51.443 98.7814 51.443 98.0124C51.443 97.1842 51.5022 96.3559 51.6205 95.5277L54.7271 95.2615Z" fill="#503D0E"/>
<path d="M98.7227 57.9918C99.4328 57.9918 99.9653 58.0214 100.32 58.0806C104.048 52.4014 108.102 49.5618 112.48 49.5618C116.326 49.5618 118.25 51.4253 118.25 55.1522C118.25 57.7552 116.948 59.0567 114.344 59.0567C111.8 59.0567 110.32 57.7256 109.906 55.0635C108.19 55.0635 106.593 56.3354 105.113 58.8792C110.853 60.7723 113.723 65.5049 113.723 73.0772C113.723 77.6915 112.806 81.5368 110.971 84.613C108.9 88.0442 104.817 89.7598 98.7227 89.7598C96.1783 89.7598 94.1073 89.464 92.5096 88.8724C91.267 91.0613 90.3499 93.4572 89.7581 96.0602C90.7641 96.2376 91.8292 96.3264 92.9534 96.3264C94.0777 96.3264 96.3262 96.1193 99.6991 95.7052C103.072 95.2911 105.498 95.084 106.977 95.084C110.054 95.084 112.539 95.8531 114.433 97.3912C116.326 98.9293 117.273 101.296 117.273 104.49C117.273 107.685 116.238 110.465 114.167 112.832C110.557 116.973 104.936 119.043 97.3026 119.043C92.1546 119.043 88.2197 118.392 85.4977 117.091C82.7758 115.789 81.4149 113.364 81.4149 109.814C81.4149 107.211 82.8054 104.52 85.5865 101.739C84.4622 100.911 83.9001 99.7575 83.9001 98.2786C83.9001 95.1432 85.409 91.2979 88.4268 86.7427C85.2906 84.1989 83.7226 79.6437 83.7226 73.0772C83.7226 63.0203 88.7226 57.9918 98.7227 57.9918ZM90.912 73.1659C90.912 80.1466 93.5156 83.6369 98.7227 83.6369C103.93 83.6369 106.533 80.1466 106.533 73.1659C106.533 66.1852 103.93 62.6949 98.7227 62.6949C93.5156 62.6949 90.912 66.1852 90.912 73.1659ZM88.6043 108.483C88.6043 112.27 92.0659 114.163 98.989 114.163C101.948 114.163 104.581 113.512 106.888 112.21C109.255 110.909 110.439 108.957 110.439 106.354C110.439 103.455 108.871 102.006 105.735 102.006C104.196 102.006 101.77 102.183 98.4564 102.538C95.1428 102.952 92.4801 103.159 90.4682 103.159H89.7581C88.9889 104.816 88.6043 106.59 88.6043 108.483Z" fill="#503D0E"/>
<path d="M154.979 69.7939L154.624 82.5721C154.624 86.5948 154.861 90.5289 155.335 94.3741L158.619 94.6404C158.737 95.5869 158.796 96.4743 158.796 97.3025C158.796 98.0715 158.707 98.8998 158.53 99.7871C156.814 99.8463 153.471 100.142 148.5 100.675C148.086 99.5505 147.76 98.1603 147.524 96.5038C142.908 99.9942 138.914 101.739 135.541 101.739C132.228 101.739 129.624 100.675 127.731 98.5448C125.896 96.356 124.979 93.2797 124.979 89.3161C124.979 85.2934 126.222 82.1284 128.707 79.8212C131.251 77.514 134.417 76.3605 138.204 76.3605C142.05 76.3605 145.334 77.0704 148.056 78.4902C148.116 77.8394 148.145 76.7746 148.145 75.2956C148.145 70.9179 147.524 67.7825 146.281 65.8895C145.098 63.9372 143.263 62.9611 140.778 62.9611C138.293 62.9611 136.488 63.4344 135.364 64.3809C135.837 65.3274 136.074 66.5106 136.074 67.9304C136.074 69.3502 135.601 70.5925 134.654 71.6574C133.766 72.6631 132.494 73.1659 130.837 73.1659C128.056 73.1659 126.666 71.5391 126.666 68.2854C126.666 64.9725 127.908 62.4287 130.393 60.6539C132.879 58.8792 136.37 57.9918 140.867 57.9918C145.364 57.9918 148.826 59.0567 151.252 61.1864C153.737 63.2569 154.979 66.1261 154.979 69.7939ZM147.701 84.0806C145.275 82.0101 142.672 80.9748 139.891 80.9748C134.565 80.9748 131.902 83.3411 131.902 88.0738C131.902 92.9248 134.003 95.3503 138.204 95.3503C139.743 95.3503 141.37 94.9657 143.086 94.1967C144.861 93.3685 146.252 92.3628 147.258 91.1796C147.553 87.6301 147.701 85.2638 147.701 84.0806Z" fill="#503D0E"/>
<path d="M201.813 69.3502L201.725 77.9577C201.725 84.1693 202.08 89.9373 202.79 95.2615L205.896 95.5277C206.015 96.8292 206.074 97.7462 206.074 98.2786C206.074 98.7519 205.985 99.4913 205.807 100.497C204.151 100.438 201.665 100.408 198.352 100.408C195.038 100.408 192.671 100.438 191.251 100.497C191.074 99.6097 190.985 98.7814 190.985 98.0124C190.985 97.1842 191.044 96.3559 191.162 95.5277L194.269 95.2615C194.742 88.34 194.979 82.4242 194.979 77.514C194.979 72.5448 194.476 68.9953 193.47 66.8656C192.523 64.7359 190.866 63.671 188.5 63.671C185.304 63.671 181.784 65.5937 177.937 69.4389C177.878 70.9771 177.849 74.5857 177.849 80.2649C177.849 85.8849 178.115 90.8838 178.647 95.2615L181.931 95.5277C182.05 96.8292 182.109 97.7462 182.109 98.2786C182.109 98.7519 182.02 99.4913 181.843 100.497C180.186 100.438 177.76 100.408 174.565 100.408C171.369 100.408 169.032 100.438 167.553 100.497C167.375 99.6097 167.286 98.7814 167.286 98.0124C167.286 97.1842 167.346 96.3559 167.464 95.5277L170.57 95.2615C171.103 89.3457 171.369 83.9327 171.369 79.0226C171.369 74.0533 171.133 69.1432 170.659 64.2922L167.375 64.026C167.198 63.0203 167.109 62.0442 167.109 61.0976C167.109 60.0919 167.138 59.4116 167.198 59.0567C170.215 58.9975 173.884 58.7313 178.204 58.258L178.647 58.7017C178.529 59.4116 178.352 61.1864 178.115 64.026C179.949 62.1921 182.079 60.7427 184.505 59.6778C186.932 58.5538 189.21 57.9918 191.34 57.9918C198.322 57.9918 201.813 61.778 201.813 69.3502Z" fill="#503D0E"/>
<path d="M217.897 95.2615C218.429 89.464 218.695 84.1694 218.695 79.3775C218.695 74.5266 218.459 69.4981 217.985 64.2922L214.701 64.026C214.524 63.0203 214.435 62.0737 214.435 61.1864C214.435 60.2398 214.465 59.5299 214.524 59.0567C217.956 58.9384 221.624 58.6721 225.53 58.258L225.974 58.7017C225.441 62.1921 225.175 68.0487 225.175 76.2717C225.175 84.4947 225.441 90.8247 225.974 95.2615L229.258 95.5277C229.376 96.4743 229.435 97.3025 229.435 98.0124C229.435 98.6631 229.346 99.4913 229.169 100.497C227.098 100.438 224.701 100.408 221.979 100.408C219.258 100.408 216.891 100.438 214.879 100.497C214.701 99.6097 214.613 98.6927 214.613 97.7462C214.613 96.7996 214.672 96.0602 214.79 95.5277L217.897 95.2615Z" fill="#503D0E"/>
<path d="M263.047 73.1659C261.391 73.1659 260.089 72.6631 259.142 71.6574C258.255 70.5925 257.811 69.3206 257.811 67.8417C257.811 66.3036 258.018 65.15 258.432 64.3809C257.13 63.3752 255.592 62.8724 253.817 62.8724C247.544 62.8724 244.408 68.4333 244.408 79.555C244.408 84.6426 245.207 88.5471 246.805 91.2683C248.402 93.9896 250.651 95.3503 253.55 95.3503C256.509 95.3503 260.148 93.5164 264.468 89.8485C266.184 91.6233 267.278 93.96 267.752 96.8588C262.781 100.112 257.722 101.739 252.574 101.739C247.426 101.739 243.55 99.8759 240.947 96.1489C238.402 92.4219 237.13 86.9202 237.13 79.6437C237.13 72.3673 238.55 66.9543 241.39 63.4048C244.231 59.7962 248.254 57.9918 253.462 57.9918C257.544 57.9918 260.858 58.9679 263.403 60.9202C265.947 62.8132 267.219 65.3275 267.219 68.4628C267.219 71.5982 265.829 73.1659 263.047 73.1659Z" fill="#503D0E"/>
<path d="M278.73 83.1045C280.564 83.1045 281.984 83.6665 282.99 84.7905C283.996 85.9145 284.499 87.3047 284.499 88.9612C284.499 90.5584 284.233 91.8599 283.7 92.8656C286.304 94.9953 289.292 96.0602 292.665 96.0602C296.097 96.0602 298.671 95.2911 300.387 93.753C302.103 92.1557 302.961 89.9964 302.961 87.2752C302.961 84.5539 302.014 82.2171 300.121 80.2649C298.227 78.3127 295.919 76.6858 293.198 75.3844C290.535 74.0829 287.872 72.7222 285.209 71.3024C282.547 69.8235 280.268 67.8713 278.375 65.4458C276.481 63.0203 275.535 60.1511 275.535 56.8382C275.535 52.2831 277.044 48.7336 280.061 46.1898C283.079 43.5868 286.955 42.2853 291.689 42.2853C296.422 42.2853 300.505 43.4093 303.937 45.6573C307.428 47.9053 309.174 50.952 309.174 54.7973C309.174 58.5834 307.636 60.4765 304.559 60.4765C302.724 60.4765 301.304 59.9145 300.298 58.7905C299.292 57.6665 298.789 56.2171 298.789 54.4423C298.789 52.6676 299.144 51.3069 299.854 50.3604C297.783 48.4674 295.239 47.5208 292.221 47.5208C289.203 47.5208 286.925 48.2899 285.387 49.828C283.908 51.3661 283.168 53.2887 283.168 55.5959C283.168 57.9031 283.848 59.8849 285.209 61.5413C286.57 63.1386 288.257 64.4697 290.269 65.5345C292.28 66.5402 294.47 67.7234 296.837 69.084C299.203 70.3855 301.393 71.687 303.405 72.9884C305.417 74.2899 307.103 76.0647 308.464 78.3127C309.825 80.5015 310.505 83.0158 310.505 85.8554C310.505 90.5289 308.878 94.3446 305.624 97.3025C302.428 100.26 298.316 101.739 293.286 101.739C288.257 101.739 283.789 100.586 279.884 98.2786C276.038 95.9123 274.115 92.629 274.115 88.4287C274.115 84.8792 275.653 83.1045 278.73 83.1045Z" fill="#503D0E"/>
<path d="M353.24 69.3502L353.151 77.9577C353.151 84.2285 353.506 89.9964 354.216 95.2615L357.323 95.5277C357.441 96.4743 357.5 97.3025 357.5 98.0124C357.5 98.6631 357.411 99.4913 357.234 100.497C355.163 100.438 352.707 100.408 349.867 100.408C347.086 100.408 344.689 100.438 342.677 100.497C342.5 99.6097 342.411 98.8406 342.411 98.1899C342.411 97.48 342.47 96.5926 342.589 95.5277L345.695 95.2615C346.169 88.8724 346.405 83.1932 346.405 78.2239C346.405 73.2547 345.962 69.5868 345.074 67.2205C344.246 64.8542 342.53 63.671 339.926 63.671C336.612 63.671 333.062 65.5641 329.275 69.3502V77.6915C329.275 84.968 329.541 90.8247 330.074 95.2615L333.358 95.5277C333.476 96.4743 333.535 97.3025 333.535 98.0124C333.535 98.6631 333.447 99.4913 333.269 100.497C331.198 100.438 328.802 100.408 326.08 100.408C323.358 100.408 320.991 100.438 318.979 100.497C318.802 99.6097 318.713 98.8406 318.713 98.1899C318.713 97.48 318.772 96.5926 318.89 95.5277L321.997 95.2615C322.529 89.7006 322.796 84.5539 322.796 79.8212V67.6642C322.796 57.0157 322.648 49.7688 322.352 45.9235L318.802 45.6573C318.624 44.8883 318.535 44.0009 318.535 42.9952C318.535 41.9304 318.565 41.1613 318.624 40.688C324.009 40.3923 327.855 40.126 330.163 39.8894L330.518 40.3331C329.689 47.3729 329.275 55.3001 329.275 64.1147C331.05 62.34 333.18 60.8906 335.666 59.7666C338.151 58.5834 340.518 57.9918 342.766 57.9918C349.749 57.9918 353.24 61.778 353.24 69.3502Z" fill="#503D0E"/>
<path d="M365.24 79.3775C365.24 65.1204 370.802 57.9918 381.927 57.9918C393.051 57.9918 398.613 65.1204 398.613 79.3775C398.613 85.9441 397.578 91.15 395.507 94.9953C393.14 99.4913 388.613 101.739 381.927 101.739C375.24 101.739 370.714 99.4913 368.347 94.9953C366.276 91.15 365.24 85.9441 365.24 79.3775ZM372.518 79.2001C372.518 89.9669 375.654 95.3503 381.927 95.3503C388.199 95.3503 391.335 89.9669 391.335 79.2001C391.335 68.3741 388.199 62.9611 381.927 62.9611C375.654 62.9611 372.518 68.3741 372.518 79.2001Z" fill="#503D0E"/>
<path d="M429.485 57.9918C437.828 57.9918 442 65.0908 442 79.2888C442 84.7314 440.935 89.6711 438.805 94.1079C437.621 96.4743 435.846 98.3377 433.479 99.6984C431.112 101.059 428.479 101.739 425.58 101.739C422.68 101.739 419.663 101.029 416.526 99.6097C416.822 107.004 417.089 111.737 417.325 113.808L420.609 114.074L420.787 116.381C420.787 117.564 420.698 118.452 420.521 119.043C419.1 118.984 416.645 118.954 413.154 118.954C409.722 118.954 407.414 118.984 406.23 119.043C406.053 118.037 405.964 117.15 405.964 116.381C405.964 115.612 406.023 114.843 406.142 114.074L409.426 113.808C409.899 107.359 410.136 98.7519 410.136 87.9851C410.136 77.1591 409.899 69.2615 409.426 64.2922L406.142 64.026C405.964 63.4935 405.875 62.6653 405.875 61.5413C405.875 60.3582 405.905 59.5299 405.964 59.0567C408.686 58.9975 412.325 58.7313 416.881 58.258L417.325 58.7017C417.089 60.4173 416.941 62.1033 416.881 63.7598C420.964 59.9145 425.166 57.9918 429.485 57.9918ZM424.781 95.3503C431.231 95.3503 434.456 89.6119 434.456 78.1352C434.456 71.1545 433.302 66.7472 430.994 64.9133C429.929 64.0851 428.538 63.671 426.822 63.671C425.106 63.671 423.302 64.233 421.408 65.357C419.515 66.481 417.917 67.8417 416.615 69.4389C416.497 74.3491 416.438 82.3059 416.438 93.3093C419.87 94.6699 422.651 95.3503 424.781 95.3503Z" fill="#503D0E"/>
<path fill-rule="evenodd" clip-rule="evenodd" d="M221.7 26.913C224.381 15.1992 220.167 5.53996 217.144 0.736819C196.499 21.5879 212.183 44.8884 212.475 44.5417C212.489 44.5255 212.503 44.5093 212.516 44.4931C212.396 43.8891 214.318 34.5669 221.7 26.913Z" fill="#248B00"/>
<path d="M244.218 19.4655C243.654 27.7947 238.991 46.138 214.662 52.1325C214.222 52.241 215.254 24.1722 244.218 19.4655Z" fill="#248B00"/>
</svg>
